# xmcd
#
# Track frame offsets:
#	150
#	29806
#	41677
#	67787
#	78780
#	96910
#	120062
#	144227
#	166609
#	183711
#	202439
#	215757
#	243231
#	260582
#	288473
#
# Disc length: 4026
#
# Revision: 1
# Processed by: cddbd v1.5.1PL0 Copyright (c) Steve Scherf et al.
# Submitted via: WhereIsIt 3.23
# Normalized: r0:DSETVAR1
#
DISCID=d80fb80f
DTITLE=Various Artist - Blues Story - Vol. 22 - Les Labels De Légende - Alligator records - Vol. 2
DYEAR=1900
DGENRE=
TTITLE0=Johnny Winter - Third Degree
TTITLE1=Albert Collins - Avalanche
TTITLE2=Lucky Peterson - I Found A Love
TTITLE3=Lonnie Mack - Camp Washinton Chili
TTITLE4=Big Walter Horton and Carey Bell - Christine
TTITLE5=James Cotton - Part Time Love
TTITLE6=Charlie Musselwhite - Blues Got Me Again
TTITLE7=Billy Boy Arnold - Sunday Morning Blues
TTITLE8=Koko Taylor - Voodoo Woman
TTITLE9=Clarence "Gatemouth" Brown - Alligator Eating Dog
TTITLE10=Bob Margolin - Up and In
TTITLE11=Lonnie Brooks - Before You Go
TTITLE12=Little Charlie and The Nightcats - I'm Just Lucky That Way
TTITLE13=Hound Dog Taylor - Sadie
TTITLE14=Corey Harris - Mama Got Worried
EXTD=
EXTT0=
EXTT1=
EXTT2=
EXTT3=
EXTT4=
EXTT5=
EXTT6=
EXTT7=
EXTT8=
EXTT9=
EXTT10=
EXTT11=
EXTT12=
EXTT13=
EXTT14=
PLAYORDER=
